<?xml version="1.0" encoding="utf-8"?><svg viewBox="0 0 800 800" xmlns="http://www.w3.org/2000/svg" xmlns:xlink="http://www.w3.org/1999/xlink"><style>:root>svg{display:none}:root>svg:target{display:block}</style><svg viewBox="0 0 512 512" xml:space="preserve" id="arrow" xmlns="http://www.w3.org/2000/svg"><path d="M256 512c141.391 0 256-114.609 256-256S397.391 0 256 0 0 114.609 0 256s114.609 256 256 256zm0-472c119.297 0 216 96.703 216 216s-96.703 216-216 216S40 375.297 40 256 136.703 40 256 40z"/><path d="M212.688 363.312c6.25 6.25 16.375 6.25 22.625 0l96-96c6.25-6.25 6.25-16.375 0-22.625l-96-96C232.188 145.562 228.094 144 224 144s-8.188 1.562-11.312 4.688c-6.25 6.25-6.25 16.375 0 22.625L297.375 256l-84.688 84.688c-6.249 6.25-6.249 16.374.001 22.624z"/></svg><svg viewBox="0 0 512 512" xml:space="preserve" id="close" xmlns="http://www.w3.org/2000/svg"><path d="M335.188 154.188 256 233.375l-79.188-79.187-22.624 22.624L233.375 256l-79.187 79.188 22.624 22.624L256 278.625l79.188 79.187 22.624-22.624L278.625 256l79.187-79.188z"/><path d="M256 0C114.609 0 0 114.609 0 256s114.609 256 256 256 256-114.609 256-256S397.391 0 256 0zm0 472c-119.297 0-216-96.703-216-216S136.703 40 256 40s216 96.703 216 216-96.703 216-216 216z"/></svg><svg viewBox="0 0 512 512" xml:space="preserve" id="mail" xmlns="http://www.w3.org/2000/svg"><path d="M256 0C114.609 0 0 114.609 0 256s114.609 256 256 256 256-114.609 256-256S397.391 0 256 0zm0 472c-119.297 0-216-96.703-216-216S136.703 40 256 40s216 96.703 216 216-96.703 216-216 216z"/><path d="M256 176H128v160h256V176H256zm0 16h89.719L256 255.75 166.281 192H256zm-112 4.531 54.5 36.859-54.5 59.422v-96.281zM256 320h-92.406l45.562-79.422L256 272.25l46.844-31.672L348.406 320H256zm112-27.188-54.5-59.422 54.5-36.859v96.281z"/></svg><svg viewBox="0 0 512 512" xml:space="preserve" id="plus" xmlns="http://www.w3.org/2000/svg"><path d="M272 128h-32v112H128v32h112v112h32V272h112v-32H272z"/><path d="M256 0C114.609 0 0 114.609 0 256s114.609 256 256 256 256-114.609 256-256S397.391 0 256 0zm0 472c-119.297 0-216-96.703-216-216S136.703 40 256 40s216 96.703 216 216-96.703 216-216 216z"/></svg></svg>